HIERARCHY
ROOT SpineBase
{
  OFFSET 0.000000 0.000000 0.000000
  CHANNELS 6 Xposition Yposition Zposition Zrotation Xrotation Yrotation
  JOINT SpineMid
  {
    OFFSET 0.000000 25.939080 0.000000
    CHANNELS 3 Zrotation Xrotation Yrotation
    JOINT SpineShoulder
    {
      OFFSET 0.056607 19.292988 -0.542142
      CHANNELS 3 Zrotation Xrotation Yrotation
      JOINT Neck
      {
        OFFSET 0.006371 6.412447 -0.447281
        CHANNELS 3 Zrotation Xrotation Yrotation
        JOINT Head
        {
          OFFSET 0.986208 12.204498 0.126095
          CHANNELS 3 Zrotation Xrotation Yrotation
          End Site
          {
            OFFSET 0 0 0
          }
        }
      }
      JOINT ShoulderLeft
      {
        OFFSET -11.975975 -3.460776 -8.560610
        CHANNELS 3 Zrotation Xrotation Yrotation
        JOINT ElbowLeft
        {
          OFFSET -3.028661 -21.125700 -3.443664
          CHANNELS 3 Zrotation Xrotation Yrotation
          JOINT WristLeft
          {
            OFFSET 6.788016 -20.250021 -4.682028
            CHANNELS 3 Zrotation Xrotation Yrotation
            JOINT HandLeft
            {
              OFFSET 1.551619 -4.738577 0.088518
              CHANNELS 3 Zrotation Xrotation Yrotation
              JOINT HandTipLeft
              {
                OFFSET 3.015345 -5.120453 0.389078
                CHANNELS 3 Zrotation Xrotation Yrotation
                End Site
                {
                  OFFSET 0 0 0
                }
              }
              JOINT ThumbLeft
              {
                OFFSET 2.179918 -0.059542 -2.104992
                CHANNELS 3 Zrotation Xrotation Yrotation
                End Site
                {
                  OFFSET 0 0 0
                }
              }
            }
          }
        }
      }
      JOINT ShoulderRight
      {
        OFFSET 11.296316 -2.938328 4.132886
        CHANNELS 3 Zrotation Xrotation Yrotation
        JOINT ElbowRight
        {
          OFFSET 3.760686 -24.840853 1.176065
          CHANNELS 3 Zrotation Xrotation Yrotation
          JOINT WristRight
          {
            OFFSET 0.947733 -19.992262 -7.528706
            CHANNELS 3 Zrotation Xrotation Yrotation
            JOINT HandRight
            {
              OFFSET -1.946691 -3.375663 -0.781232
              CHANNELS 3 Zrotation Xrotation Yrotation
              JOINT HandTipRight
              {
                OFFSET -0.143400 -4.942984 -2.592849
                CHANNELS 3 Zrotation Xrotation Yrotation
                End Site
                {
                  OFFSET 0 0 0
                }
              }
              JOINT ThumbRight
              {
                OFFSET 1.708190 0.820055 -2.752701
                CHANNELS 3 Zrotation Xrotation Yrotation
                End Site
                {
                  OFFSET 0 0 0
                }
              }
            }
          }
        }
      }
    }
  }
  JOINT HipLeft
  {
    OFFSET -5.285647 0.901687 -5.246760
    CHANNELS 3 Zrotation Xrotation Yrotation
    JOINT KneeLeft
    {
      OFFSET -6.692558 -31.320755 0.969705
      CHANNELS 3 Zrotation Xrotation Yrotation
      JOINT AnkleLeft
      {
        OFFSET -2.823937 -34.413184 11.223007
        CHANNELS 3 Zrotation Xrotation Yrotation
        JOINT FootLeft
        {
          OFFSET 3.976646 -5.676217 0.258191
          CHANNELS 3 Zrotation Xrotation Yrotation
          End Site
          {
            OFFSET 0 0 0
          }
        }
      }
    }
  }
  JOINT HipRight
  {
    OFFSET 5.016726 0.322790 -0.711230
    CHANNELS 3 Zrotation Xrotation Yrotation
    JOINT KneeRight
    {
      OFFSET -1.926878 -29.705164 4.732734
      CHANNELS 3 Zrotation Xrotation Yrotation
      JOINT AnkleRight
      {
        OFFSET -4.490134 -34.587500 9.408214
        CHANNELS 3 Zrotation Xrotation Yrotation
        JOINT FootRight
        {
          OFFSET 2.522501 -3.527244 -9.180986
          CHANNELS 3 Zrotation Xrotation Yrotation
          End Site
          {
            OFFSET 0 0 0
          }
        }
      }
    }
  }
}
MOTION
Frames: 12
Frame Time: 0.033333
16.842617 70.784950 367.474738 -0.000000 0.000000 -23.761078 -0.000000 0.000000 23.761078 -0.000000 0.000000 0.000000 -0.000000 0.000000 0.000000 0.000000 0.000000 0.000000 -0.000000 0.000000 0.000000 -0.000000 0.000000 0.000000 -0.000000 0.000000 0.000000 -0.000000 0.000000 0.000000 0.000000 0.000000 0.000000 0.000000 0.000000 0.000000 -0.000000 0.000000 0.000000 -0.000000 0.000000 0.000000 -0.000000 0.000000 0.000000 -0.000000 0.000000 0.000000 0.000000 0.000000 0.000000 0.000000 0.000000 0.000000 -0.000000 0.000000 23.761078 -0.000000 0.000000 0.000000 -0.000000 0.000000 0.000000 0.000000 0.000000 0.000000 -0.000000 0.000000 23.761078 -0.000000 0.000000 0.000000 -0.000000 0.000000 0.000000 0.000000 0.000000 0.000000
16.859895 70.818636 367.494535 -0.049829 0.063914 -23.988113 0.071509 -0.038136 23.988164 -0.000000 0.000000 0.000000 -0.000000 0.000000 0.000000 0.000000 0.000000 0.000000 -0.000000 0.000000 0.000000 -0.000000 0.000000 0.000000 -0.000000 0.000000 0.000000 -0.524894 2.256744 1.305000 0.000000 0.000000 0.000000 0.000000 0.000000 0.000000 -0.000000 0.000000 0.000000 0.175807 -1.082546 -0.116269 -1.285864 -0.048969 1.034500 -0.504646 -2.306383 0.009307 0.000000 0.000000 0.000000 0.000000 0.000000 0.000000 0.071509 -0.038136 23.988164 -1.052721 0.312130 -0.366122 -0.671054 -0.191559 0.373425 0.000000 0.000000 0.000000 0.071509 -0.038136 23.988164 -0.000000 0.000000 0.000000 -3.852337 -6.184148 6.452653 0.000000 0.000000 0.000000
16.868897 70.844741 367.516099 -0.107425 0.117777 -24.176516 0.146238 -0.063450 24.176707 -0.000000 0.000000 0.000000 -0.000000 0.000000 0.000000 0.000000 0.000000 0.000000 -0.000000 0.000000 0.000000 -0.000000 0.000000 0.000000 0.608773 -1.204083 -0.375786 -1.623272 5.673366 3.035177 0.000000 0.000000 0.000000 0.000000 0.000000 0.000000 -0.000000 0.000000 0.000000 0.278254 -1.972660 -0.194758 -2.368698 -0.024191 1.859699 -0.956449 -4.276244 0.046375 0.000000 0.000000 0.000000 0.000000 0.000000 0.000000 0.146238 -0.063450 24.176707 -1.904154 0.574659 -0.658828 -1.108815 -0.228316 0.773667 0.000000 0.000000 0.000000 0.146238 -0.063450 24.176707 -0.000000 0.000000 0.000000 -6.699597 -12.006767 11.843172 0.000000 0.000000 0.000000
16.869622 70.863265 367.539431 -0.172770 0.161518 -24.326419 0.223965 -0.076007 24.326811 -0.000000 0.000000 0.000000 0.613193 -0.818895 0.064253 0.000000 0.000000 0.000000 -0.000000 0.000000 0.000000 -0.000000 0.000000 0.000000 0.823840 -1.711755 -0.531445 -2.204077 8.276070 4.500624 0.000000 0.000000 0.000000 0.000000 0.000000 0.000000 -0.320317 0.844406 0.115122 0.621663 -3.513065 -0.343365 -3.272791 0.057778 2.483504 -1.322352 -5.891120 0.112373 0.000000 0.000000 0.000000 0.000000 0.000000 0.000000 0.223965 -0.076007 24.326811 -2.511251 0.771166 -0.865820 -1.482826 -0.099808 1.182117 0.000000 0.000000 0.000000 0.223965 -0.076007 24.326811 -0.000000 0.000000 0.000000 -8.395043 -16.300759 15.476312 0.000000 0.000000 0.000000
16.862071 70.874207 367.564529 -0.245834 0.195083 -24.437979 0.304517 -0.075900 24.438600 -0.000000 0.000000 0.000000 0.790935 -1.015722 0.080971 0.000000 0.000000 0.000000 -0.000000 0.000000 0.000000 -0.000000 0.000000 0.000000 0.983969 -2.162521 -0.669111 -2.546084 10.605914 5.831436 0.000000 0.000000 0.000000 0.000000 0.000000 0.000000 -0.301921 0.979935 0.136755 0.557800 -4.146226 -0.372513 -4.017227 0.184342 2.912001 -1.581685 -7.149453 0.213280 0.000000 0.000000 0.000000 0.000000 0.000000 0.000000 0.304517 -0.075900 24.438600 -2.841372 0.888600 -0.978174 -1.904229 0.210268 1.590360 0.000000 0.000000 0.000000 0.304517 -0.075900 24.438600 -0.000000 0.000000 0.000000 -9.062276 -18.325218 16.979743 0.000000 0.000000 0.000000
16.846242 70.877568 367.591394 -0.326576 0.218428 -24.511374 0.387765 -0.063252 24.512211 -0.000000 0.000000 0.000000 0.956154 -1.175780 0.095021 0.000000 0.000000 0.000000 -0.000000 0.000000 0.000000 -0.000000 0.000000 0.000000 1.091558 -2.559978 -0.790799 -2.572878 12.563882 6.935586 0.000000 0.000000 0.000000 0.000000 0.000000 0.000000 -0.220933 1.042782 0.149531 0.359844 -4.507772 -0.361987 -4.616497 0.346843 3.149594 -1.722158 -8.057217 0.356944 0.000000 0.000000 0.000000 0.000000 0.000000 0.000000 0.387765 -0.063252 24.512211 -2.876088 0.919158 -0.991041 -2.440298 0.722438 2.001615 0.000000 0.000000 0.000000 0.387765 -0.063252 24.512211 -0.000000 0.000000 0.000000 -8.820022 -17.811650 16.234817 0.000000 0.000000 0.000000
16.819790 70.869094 367.625051 -0.446345 0.255522 -24.512277 0.512129 -0.047303 24.513484 -0.000000 0.000000 0.000000 1.274615 -1.444670 0.119770 0.000000 0.000000 0.000000 -0.000000 0.000000 0.000000 -0.606841 -0.892754 -0.164272 2.108252 -2.079188 -0.772474 -1.550171 14.323284 7.751879 0.000000 0.000000 0.000000 0.000000 0.000000 0.000000 -0.082627 0.990294 0.146804 -0.003875 -4.526690 -0.290607 -4.796248 0.319117 3.223174 -2.517389 -8.912706 0.761900 0.000000 0.000000 0.000000 0.000000 0.000000 0.000000 0.512129 -0.047303 24.513484 -2.153570 0.720833 -0.748390 -4.023964 2.971867 3.344992 0.000000 0.000000 0.000000 0.512129 -0.047303 24.513484 -0.128506 0.817823 -0.140461 -5.869956 -12.191323 9.853971 0.000000 0.000000 0.000000
16.779079 70.852700 367.658898 -0.567162 0.273580 -24.501726 0.629546 -0.013721 24.503155 -0.000000 0.000000 0.000000 1.471360 -1.577169 0.132661 0.000000 0.000000 0.000000 -0.000000 0.000000 0.000000 -0.659686 -1.052425 -0.207164 2.093010 -2.440908 -0.902356 -0.792052 15.598317 8.286603 0.000000 0.000000 0.000000 0.000000 0.000000 0.000000 0.146876 0.819086 0.129927 -0.508664 -4.187724 -0.175503 -5.627335 1.141376 2.848204 -2.297846 -8.564614 1.476110 0.000000 0.000000 0.000000 0.000000 0.000000 0.000000 0.629546 -0.013721 24.503155 -1.604252 0.554274 -0.561181 -5.481553 3.350412 3.327519 0.000000 0.000000 0.000000 0.629546 -0.013721 24.503155 -0.106898 0.904958 -0.146013 -1.041104 -3.906342 1.033963 0.000000 0.000000 0.000000
16.743464 70.834382 367.691802 -0.673978 0.260117 -24.487738 -0.128370 -0.000619 24.466162 -0.064950 -0.110073 -0.037772 2.498624 -1.800734 0.202720 0.000000 0.000000 0.000000 0.856261 -0.201818 0.061429 -0.573128 -0.958835 -0.194402 0.952548 -2.536184 -0.946884 1.052969 16.814990 8.868723 0.000000 0.000000 0.000000 0.000000 0.000000 0.000000 1.259221 0.549472 0.192968 -1.100151 -3.918251 -0.054512 -5.775866 2.736943 1.894725 -1.077910 -9.086023 1.960796 0.000000 0.000000 0.000000 0.000000 0.000000 0.000000 0.721169 0.042654 24.488999 -1.267987 0.575078 -0.454696 -6.243282 3.298988 3.185203 0.000000 0.000000 0.000000 0.721169 0.042654 24.488999 -0.088909 0.976007 -0.150468 1.124478 -1.192137 -2.667295 0.000000 0.000000 0.000000
16.707434 70.821371 367.720293 -0.716599 0.201286 -24.481470 0.735585 0.113775 24.481998 -0.828901 0.055430 -0.057474 2.267331 -1.460585 0.176316 0.000000 0.000000 0.000000 0.828956 -0.054592 0.058270 -0.607524 -1.008166 -0.203610 1.224779 -2.970010 -1.086501 0.827023 16.835719 8.745916 0.000000 0.000000 0.000000 0.000000 0.000000 0.000000 1.539728 0.633510 0.192340 -1.755490 -3.507585 0.077904 -6.624699 2.104120 2.165554 1.058468 -7.467005 1.120227 0.000000 0.000000 0.000000 0.000000 0.000000 0.000000 0.735585 0.113775 24.481998 -1.105579 0.621393 -0.405959 -4.659767 1.901192 2.072169 0.000000 0.000000 0.000000 0.735585 0.113775 24.481998 -0.080201 1.003118 -0.151689 2.039350 0.524740 -3.673259 0.000000 0.000000 0.000000
16.673073 70.809030 367.745926 -0.732265 0.107376 -24.471142 0.710965 0.205599 24.470553 -0.000000 0.000000 0.000000 1.065992 -1.037144 0.082515 0.000000 0.000000 0.000000 -0.601725 0.656571 0.007393 0.064058 -1.890276 -0.302949 0.874007 -3.184201 -1.149735 1.778815 14.194191 6.985083 0.000000 0.000000 0.000000 0.000000 0.000000 0.000000 0.902455 0.687007 0.141196 -2.067862 -3.392179 0.115946 -6.588640 1.414925 2.407587 1.729431 -6.885868 0.503060 0.000000 0.000000 0.000000 0.000000 0.000000 0.000000 0.710965 0.205599 24.470553 -1.353871 0.867210 -0.503221 -1.652754 -2.205763 -0.642479 0.000000 0.000000 0.000000 0.710965 0.205599 24.470553 -0.069762 1.003060 -0.148928 1.603297 -0.116071 -3.097438 0.000000 0.000000 0.000000
16.641128 70.800489 367.769411 -0.740434 0.053333 -24.568059 0.695579 0.259345 24.566829 -0.000000 0.000000 0.000000 0.679169 -0.825497 0.064618 0.000000 0.000000 0.000000 -0.668228 0.640890 0.020748 -0.139492 -2.090766 -0.333656 1.728045 -2.508040 -0.978752 1.596323 13.379607 6.617700 0.000000 0.000000 0.000000 0.000000 0.000000 0.000000 1.049400 0.607211 0.135896 -2.328127 -3.282502 0.163711 -6.787073 0.574524 2.836975 2.779176 -6.828702 -0.409795 0.000000 0.000000 0.000000 0.000000 0.000000 0.000000 0.695579 0.259345 24.566829 -1.423223 1.028865 -0.536845 -1.061472 -4.353259 -2.027621 0.000000 0.000000 0.000000 0.695579 0.259345 24.566829 -0.057718 1.013495 -0.147109 3.029743 1.805610 -5.170669 0.000000 0.000000 0.000000
